<svg width="500" height="500" version="1.1" viewBox="0 0 132.29 132.29" xmlns="http://www.w3.org/2000/svg">
 <defs>
  <filter id="filter47235" x="-.073819" y="-.073819" width="1.1476" height="1.1476" color-interpolation-filters="sRGB">
   <feGaussianBlur stdDeviation="3.2182919"/>
  </filter>
 </defs>
 <path transform="matrix(1.0746 0 0 1.0384 -4.1795 -1.3307)" d="m88.69 116.42c-12.341 5.1845-27.765 5.2619-40.157 0.20141-12.393-5.0605-23.353-15.912-28.538-28.253-5.1845-12.341-5.2619-27.765-0.20141-40.157 5.0605-12.393 15.912-23.353 28.253-28.538s27.765-5.2619 40.157-0.20141c12.392 5.0605 23.353 15.912 28.538 28.253s5.2619 27.765 0.20141 40.157c-5.0605 12.392-15.912 23.353-28.253 28.538z" filter="url(#filter47235)" opacity=".14458" stroke-linecap="round" stroke-linejoin="round" stroke-width=".14788"/>
 <path d="m88.585 119.56c-13.627 5.7247-30.658 5.8102-44.341 0.2224-13.684-5.5878-25.786-17.57-31.512-31.197-5.7247-13.627-5.8102-30.658-0.2224-44.341 5.5878-13.684 17.57-25.786 31.197-31.512 13.627-5.7253 30.658-5.8102 44.341-0.2224 13.683 5.5878 25.786 17.57 31.512 31.197s5.8102 30.658 0.2224 44.341c-5.5878 13.684-17.57 25.786-31.197 31.512z" fill="#fff" stroke-linecap="round" stroke-linejoin="round" stroke-width=".16329"/>
 <path d="m24.147 38.95s-0.25183 11.477 1.8174 16.727c2.6293 6.6703 6.9901 13.152 12.955 17.473 3.7156 2.6909 8.26 4.7599 12.921 5.0903 3.7657 0.267 9.0164 0.2302 9.0164 0.2302s1.5829 4.3313 1.0461 6.4441c-0.42292 1.6643-3.1716 4.1616-3.1716 4.1616s-0.92648 3.0248 2.6134 4.069c2.4853 0.73312 3.5006-0.81276 3.5006-0.81276s-0.61874-2.883-0.0999-4.1906c0.54964-1.3852 3.165-3.2701 3.165-3.2701s4.1911 3.1462 6.6629 3.9853c3.262 1.1074 6.8859 1.71 10.313 1.2265 5.2463-0.74013 10.169-3.2903 14.53-6.1552 3.4055-2.2371 8.7365-8.3854 8.7365-8.3854s-10.063-5.2267-15.56-6.5743c-3.5879-0.87964-7.4006-1.3681-11.075-0.91403-3.9728 0.49084-8.0003 1.7192-11.308 3.8646-0.73974 0.47986-1.281 1.2081-1.7671 1.9225-0.6901 1.0142-1.5892 3.2928-1.5892 3.2928l-0.54691 4.8698s5.8693-3.5762 9.1739-4.4791c5.4319-1.4839 16.895-1.3726 16.895-1.3726s-11.318 1.014-16.569 2.906c-3.8425 1.3847-10.557 6.047-10.557 6.047s-0.13542-3.2657-0.57879-4.8309c-1.2284-4.3347-3.0393-8.6175-5.685-12.338-2.4738-3.4789-6.0986-6.0832-9.2841-8.9943-3.0696-2.805-9.4633-8.1566-9.4633-8.1566s7.2042 3.7479 10.383 6.1854c3.7901 2.9067 7.3993 6.1549 10.198 9.9409 2.0083 2.7166 4.5776 8.9579 4.5776 8.9579l1.1736-0.48513s2.0422-4.0574 2.4845-6.2413c0.48842-2.4108 0.78204-4.9842 0.14496-7.3637-0.71013-2.6521-2.3875-5.0666-4.2706-7.1389-3.575-3.9337-8.0908-7.1816-12.934-9.6007-5.3683-2.6814-11.41-4.0586-17.359-5.1894-3.4427-0.65443-10.49-0.90062-10.49-0.90062z" fill="#00a896" stroke-width="2.3819"/>
 <circle cx="86.153" cy="55.679" r=".011773" fill="#1b2339" stroke="#000" stroke-width=".26458"/>
</svg>
