<?xml version="1.0" encoding="UTF-8" standalone="no"?>
<svg
   width="500"
   height="500"
   version="1.1"
   viewBox="0 0 132.29 132.29"
   id="svg23"
   sodipodi:docname="logo.svg"
   inkscape:version="1.1.1 (1:1.1+202109281949+c3084ef5ed)"
   xmlns:inkscape="http://www.inkscape.org/namespaces/inkscape"
   xmlns:sodipodi="http://sodipodi.sourceforge.net/DTD/sodipodi-0.dtd"
   xmlns="http://www.w3.org/2000/svg"
   xmlns:svg="http://www.w3.org/2000/svg">
  <sodipodi:namedview
     id="namedview25"
     pagecolor="#ffffff"
     bordercolor="#666666"
     borderopacity="1.0"
     inkscape:pageshadow="2"
     inkscape:pageopacity="0.0"
     inkscape:pagecheckerboard="0"
     showgrid="false"
     inkscape:zoom="1.188"
     inkscape:cx="232.32323"
     inkscape:cy="182.65993"
     inkscape:window-width="1366"
     inkscape:window-height="742"
     inkscape:window-x="0"
     inkscape:window-y="0"
     inkscape:window-maximized="1"
     inkscape:current-layer="svg23" />
  <defs
     id="defs5">
    <filter
       id="filter47235"
       x="-0.073818728"
       y="-0.073818728"
       width="1.1476375"
       height="1.1476375"
       color-interpolation-filters="sRGB">
      <feGaussianBlur
         stdDeviation="3.2182919"
         id="feGaussianBlur2" />
    </filter>
  </defs>
  <path
     transform="matrix(1.0746 0 0 1.0384 -4.1795 -1.3307)"
     d="m88.69 116.42c-12.341 5.1845-27.765 5.2619-40.157 0.20141-12.393-5.0605-23.353-15.912-28.538-28.253-5.1845-12.341-5.2619-27.765-0.20141-40.157 5.0605-12.393 15.912-23.353 28.253-28.538s27.765-5.2619 40.157-0.20141c12.392 5.0605 23.353 15.912 28.538 28.253s5.2619 27.765 0.20141 40.157c-5.0605 12.392-15.912 23.353-28.253 28.538z"
     filter="url(#filter47235)"
     opacity=".14458"
     stroke-linecap="round"
     stroke-linejoin="round"
     stroke-width=".14788"
     id="path7" />
  <path
     d="m 88.584766,119.55978 c -13.626933,5.72473 -30.658113,5.81019 -44.34136,0.2224 C 30.559056,114.19438 18.457024,102.21215 12.731747,88.585218 7.0070217,74.958286 6.9215566,57.927105 12.50935,44.243859 18.097154,30.559508 30.07938,18.457476 43.706312,12.732199 57.333244,7.0069223 74.364425,6.9220093 88.047672,12.509802 c 13.683248,5.587793 25.786378,17.570031 31.511658,31.196963 5.72528,13.626932 5.81019,30.658113 0.2224,44.341359 -5.58781,13.684346 -17.57003,25.786386 -31.196964,31.511656 z"
     fill="#ffffff"
     stroke-linecap="round"
     stroke-linejoin="round"
     stroke-width="0.163289"
     id="path9" />
  <path
     d="m 24.147405,38.949936 c 0,0 -0.251829,11.477067 1.817364,16.727015 2.629277,6.670338 6.990055,13.152481 12.955437,17.472596 3.71556,2.690876 8.259951,4.759855 12.92072,5.090296 3.76568,0.267 9.016412,0.230196 9.016412,0.230196 0,0 1.582944,4.331254 1.046086,6.444087 -0.422924,1.664349 -3.171563,4.161623 -3.171563,4.161623 0,0 -0.926481,3.024801 2.613386,4.069035 2.48527,0.733123 3.500649,-0.812762 3.500649,-0.812762 0,0 -0.618737,-2.883017 -0.0999,-4.19063 0.549645,-1.385167 3.164963,-3.270078 3.164963,-3.270078 0,0 4.191098,3.146161 6.662922,3.985262 3.262024,1.107377 6.885898,1.709993 10.312711,1.226535 5.246331,-0.740129 10.169196,-3.290268 14.530463,-6.155183 3.405535,-2.237052 8.736475,-8.385435 8.736475,-8.385435 0,0 -10.06285,-5.226742 -15.559542,-6.574269 -3.587934,-0.879639 -7.400556,-1.368064 -11.075287,-0.91403 -3.972765,0.490837 -8.000296,1.719157 -11.307796,3.864596 -0.739739,0.479861 -1.280974,1.208086 -1.7671,1.922458 -0.690105,1.014162 -1.589155,3.29282 -1.589155,3.29282 l -0.546906,4.869846 c 0,0 5.869298,-3.576155 9.173865,-4.479069 5.4319,-1.483858 16.895198,-1.372635 16.895198,-1.372635 0,0 -11.31807,1.01395 -16.568799,2.905987 -3.842453,1.384704 -10.556963,6.047047 -10.556963,6.047047 0,0 -0.135422,-3.265668 -0.578788,-4.830861 -1.228407,-4.334732 -3.039292,-8.617488 -5.68495,-12.338212 -2.473779,-3.478924 -6.09863,-6.083245 -9.284131,-8.994341 -3.069608,-2.805044 -9.463345,-8.156632 -9.463345,-8.156632 0,0 7.20423,3.747874 10.382639,6.185351 3.790129,2.906684 7.399334,6.154949 10.198289,9.94088 2.008291,2.716635 4.577643,8.957909 4.577643,8.957909 l 1.17359,-0.485128 c 0,0 2.042153,-4.057432 2.484537,-6.241275 0.488423,-2.410789 0.782036,-4.984248 0.144965,-7.36371 -0.710127,-2.652124 -2.38752,-5.066626 -4.270557,-7.138851 -3.574975,-3.933749 -8.09076,-7.18155 -12.934409,-9.600693 C 46.628188,42.358319 40.586278,40.981089 34.63801,39.850299 31.195304,39.195865 24.147794,38.949681 24.147794,38.949681 Z"
     id="path11"
     style="fill:#00a896;stroke-width:2.38193" />
  <circle
     cx="86.153"
     cy="55.679"
     r=".011773"
     fill="#1b2339"
     stroke="#000"
     stroke-width=".26458"
     id="circle21" />
</svg>
