<svg width="500" height="500" version="1.1" viewBox="0 0 132.29 132.29" xmlns="http://www.w3.org/2000/svg">
 <defs>
  <filter id="filter47235" x="-.073819" y="-.073819" width="1.1476" height="1.1476" color-interpolation-filters="sRGB">
   <feGaussianBlur stdDeviation="3.2182919"/>
  </filter>
 </defs>
 <path transform="matrix(1.0746 0 0 1.0384 -4.1795 -1.3307)" d="m88.69 116.42c-12.341 5.1845-27.765 5.2619-40.157 0.20141-12.393-5.0605-23.353-15.912-28.538-28.253-5.1845-12.341-5.2619-27.765-0.20141-40.157 5.0605-12.393 15.912-23.353 28.253-28.538s27.765-5.2619 40.157-0.20141c12.392 5.0605 23.353 15.912 28.538 28.253s5.2619 27.765 0.20141 40.157c-5.0605 12.392-15.912 23.353-28.253 28.538z" filter="url(#filter47235)" opacity=".14458" stroke-linecap="round" stroke-linejoin="round" stroke-width=".14788"/>
 <g transform="matrix(1.1042,0,0,1.1042,-6.8932,-6.8932)" fill="#00a896">
  <path d="m86.468 114.52c-12.341 5.1845-27.765 5.2619-40.157 0.20141-12.393-5.0605-23.353-15.912-28.538-28.253-5.1845-12.341-5.2619-27.765-0.20141-40.157 5.0605-12.393 15.912-23.353 28.253-28.538s27.765-5.2619 40.157-0.20141 23.353 15.912 28.538 28.253 5.2619 27.765 0.20141 40.157c-5.0605 12.393-15.912 23.353-28.253 28.538z" stroke-linecap="round" stroke-linejoin="round" stroke-width=".14788"/>
  <g transform="matrix(1.499,0,0,1.499,-33.009,19.186)">
   <path d="m49.283 12.805s-0.103 4.9459 0.74332 7.2083c1.0754 2.8745 2.859 5.6679 5.2989 7.5296 1.5197 1.1596 3.3784 2.0512 5.2847 2.1936 1.5402 0.11506 3.6878 0.0992 3.6878 0.0992s0.64744 1.8665 0.42786 2.777c-0.17298 0.71723-1.2972 1.7934-1.2972 1.7934s-0.37894 1.3035 1.0689 1.7535c1.0165 0.31593 1.4318-0.35025 1.4318-0.35025s-0.25307-1.2424-0.04086-1.8059c0.22481-0.59692 1.2945-1.4092 1.2945-1.4092s1.7142 1.3558 2.7252 1.7174c1.3342 0.47721 2.8164 0.7369 4.218 0.52856 2.1458-0.31895 4.1593-1.4179 5.9431-2.6525 1.3929-0.96403 3.5733-3.6136 3.5733-3.6136s-4.1158-2.2524-6.364-2.8331c-1.4675-0.37907-3.0269-0.58955-4.5299-0.39389-1.6249 0.21152-3.2722 0.74085-4.625 1.6654-0.30256 0.20679-0.52393 0.52061-0.72276 0.82846-0.28226 0.43704-0.64998 1.419-0.64998 1.419l-0.22369 2.0986s2.4006-1.5411 3.7522-1.9302c2.2217-0.63945 6.9103-0.59152 6.9103-0.59152s-4.6292 0.43695-6.7768 1.2523c-1.5716 0.59672-4.3179 2.6059-4.3179 2.6059s-0.05539-1.4073-0.23673-2.0818c-0.50243-1.868-1.2431-3.7136-2.3252-5.317-1.0118-1.4992-2.4944-2.6215-3.7973-3.876-1.2555-1.2088-3.8706-3.515-3.8706-3.515s2.9466 1.6151 4.2466 2.6655c1.5502 1.2526 3.0264 2.6524 4.1712 4.2839 0.82141 1.1707 1.8723 3.8603 1.8723 3.8603l0.48001-0.20906s0.83526-1.7485 1.0162-2.6896c0.19977-1.0389 0.31986-2.1479 0.05929-3.1733-0.29045-1.1429-0.97652-2.1834-1.7467-3.0764-1.4622-1.6952-3.3092-3.0948-5.2903-4.1373-2.1957-1.1555-4.6669-1.749-7.0998-2.2363-1.4081-0.28202-4.2906-0.38811-4.2906-0.38811z" fill="#fff"/>
   <text x="37.834991" y="48.991856" fill="#ffffff" font-family="sans-serif" font-size="10.583px" stroke-width=".26458" style="line-height:1.25" xml:space="preserve"><tspan x="37.834991" y="48.991856" fill="#ffffff" font-family="System-ui" font-weight="bold" stroke-width=".26458">ToPlanter</tspan></text>
  </g>
 </g>
 <circle cx="86.153" cy="55.679" r=".011773" fill="#1b2339" stroke="#000" stroke-width=".26458"/>
</svg>
